<svg width="47" height="47" viewBox="0 0 47 47" fill="none" xmlns="http://www.w3.org/2000/svg">
<circle cx="23.5" cy="23.5" r="21" fill="white" stroke="black" stroke-width="5"/>
<path fill-rule="evenodd" clip-rule="evenodd" d="M22.3436 6.81885V9.61937L19.7866 7.06237L17.9602 8.76703L22.2218 13.0287L22.2653 20.4576L16.9993 15.1916V9.16472L14.5885 9.16472V12.7809L12.6083 10.8006L10.8863 12.5226L12.8665 14.5028H9.25041L9.16431 16.9997H15.1912L20.4744 22.2215H13.0282L8.76655 17.9598L7.06188 19.6645L9.61888 22.2215H6.81836V24.6567H9.61888L7.06188 27.2137L8.76655 29.0401L13.0282 24.7785L20.5691 24.7344L15.3641 30.0006H9.16499L9.16499 32.4114L12.7811 32.5836L10.887 34.4778L12.6089 36.1997L14.5892 34.2195L14.5892 37.8356L16.6556 37.4912L17.0861 31.7226L22.3007 26.508L22.3436 33.8499L17.9602 38.2334L19.6648 39.938L22.3436 37.5028V40.1815H24.7788V37.381L27.3358 39.938L28.5534 38.2334L24.7788 33.8499V26.4758L30.0001 31.6364V37.8355L32.4109 37.8355L32.5831 34.2194L34.4773 36.1135L36.1992 34.3916L34.219 32.4113H37.8351L37.4907 30.3449L31.7221 29.9145L26.5073 24.6996L33.8494 24.6567L38.2329 29.0401L39.9375 27.3355L37.5023 24.6567H40.181V22.2215H37.3805L39.9375 19.6645L38.2329 18.4468L33.8494 22.2215H26.5872L31.8089 16.9998H37.8358V14.589H34.2196L36.1999 12.6087L34.4779 10.8868L32.4977 12.867V9.2509L30.0008 9.1648V15.1917L24.7788 20.4751V13.0287L29.0405 8.76703L27.3358 7.06237L24.7788 9.61937V6.81885H22.3436Z" fill="black"/>
</svg>
