<svg width="11" height="10" viewBox="0 0 11 10" fill="none" xmlns="http://www.w3.org/2000/svg">
<path d="M1.27218 0.757359C0.714329 1.31521 0.714329 2.21981 1.27218 2.77766L3.49452 5L1.27218 7.22234C0.714329 7.78019 0.714329 8.68479 1.27218 9.24264C1.83003 9.80049 2.73463 9.80049 3.29249 9.24264L5.51482 7.02031L7.73716 9.24264C8.29501 9.80049 9.19961 9.80049 9.75746 9.24264C10.3153 8.68479 10.3153 7.78019 9.75746 7.22234L7.53513 5L9.75746 2.77766C10.3153 2.21981 10.3153 1.31521 9.75746 0.757359C9.19961 0.199507 8.29501 0.199506 7.73716 0.757359L5.51482 2.97969L3.29249 0.757359C2.73463 0.199507 1.83003 0.199506 1.27218 0.757359Z" fill="#191919"/>
</svg>
