<svg width="12" height="12" viewBox="0 0 12 12" fill="none" xmlns="http://www.w3.org/2000/svg">
<path d="M6 0C5.21108 0 4.57143 0.639648 4.57143 1.42857V4.57143H1.42857C0.639648 4.57143 0 5.21108 0 6C0 6.78892 0.639648 7.42857 1.42857 7.42857H4.57143V10.5714C4.57143 11.3604 5.21108 12 6 12C6.78892 12 7.42857 11.3604 7.42857 10.5714V7.42857H10.5714C11.3604 7.42857 12 6.78892 12 6C12 5.21108 11.3604 4.57143 10.5714 4.57143H7.42857V1.42857C7.42857 0.639648 6.78892 0 6 0Z" fill="#191919"/>
</svg>
