<svg width="89" height="119" viewBox="0 0 89 119" fill="none" xmlns="http://www.w3.org/2000/svg">
<mask id="path-1-outside-1_77_177" maskUnits="userSpaceOnUse" x="0" y="0" width="89" height="89" fill="black">
<rect fill="white" width="89" height="89"/>
<path fill-rule="evenodd" clip-rule="evenodd" d="M38.8343 84.0051C38.1016 84.0051 37.4815 83.4639 37.3825 82.7378L36.6761 77.5578V76.5723C32.8958 75.7085 29.3598 74.2035 26.1886 72.1778L25.456 72.9103L21.2938 76.0737C20.7104 76.517 19.8892 76.4613 19.371 75.9432L12.062 68.6342C11.5439 68.116 11.4881 67.2948 11.9315 66.7114L15.0948 62.5491L15.8602 61.7838C13.8659 58.6177 12.3884 55.0933 11.5462 51.3291H10.4473L5.26731 50.6227C4.54128 50.5237 4 49.9036 4 49.1708V38.8343C4 38.1016 4.54128 37.4815 5.26731 37.3825L10.4473 36.6761H11.5462C12.3884 32.9119 13.8659 29.3875 15.8602 26.2213L15.4057 25.7669L11.947 21.2958C11.4957 20.7125 11.5483 19.8847 12.0698 19.3632L19.3632 12.0698C19.8847 11.5483 20.7125 11.4957 21.2959 11.9469L25.7669 15.4056L26.1886 15.8274C29.3598 13.8016 32.8958 12.2966 36.6761 11.4328V10.8869L37.3919 5.27974C37.4853 4.54816 38.1079 4 38.8454 4H49.1597C49.8973 4 50.5199 4.54816 50.6132 5.27974L51.3291 10.8869V11.3672C55.1484 12.2037 58.7232 13.6935 61.9303 15.7136L62.2383 15.4056L66.7093 11.9469C67.2927 11.4957 68.1205 11.5483 68.642 12.0698L75.9354 19.3632C76.4569 19.8847 76.5095 20.7125 76.0582 21.2958L72.5995 25.7669L72.3243 26.0421C74.3762 29.2542 75.8938 32.8407 76.752 36.6761H77.1183L82.7254 37.3919C83.457 37.4853 84.0051 38.1079 84.0051 38.8454V49.1597C84.0051 49.8973 83.457 50.5199 82.7254 50.6132L77.1183 51.3291H76.752C75.8938 55.1645 74.3762 58.7509 72.3243 61.9631L72.9104 62.5491L76.0737 66.7114C76.5171 67.2948 76.4613 68.116 75.9432 68.6342L68.6342 75.9432C68.1161 76.4613 67.2948 76.517 66.7114 76.0737L62.5492 72.9103L61.9303 72.2915C58.7232 74.3117 55.1484 75.8015 51.3291 76.6379V77.5578L50.6227 82.7378C50.5237 83.4639 49.9036 84.0051 49.1708 84.0051H38.8343Z"/>
</mask>
<path fill-rule="evenodd" clip-rule="evenodd" d="M38.8343 84.0051C38.1016 84.0051 37.4815 83.4639 37.3825 82.7378L36.6761 77.5578V76.5723C32.8958 75.7085 29.3598 74.2035 26.1886 72.1778L25.456 72.9103L21.2938 76.0737C20.7104 76.517 19.8892 76.4613 19.371 75.9432L12.062 68.6342C11.5439 68.116 11.4881 67.2948 11.9315 66.7114L15.0948 62.5491L15.8602 61.7838C13.8659 58.6177 12.3884 55.0933 11.5462 51.3291H10.4473L5.26731 50.6227C4.54128 50.5237 4 49.9036 4 49.1708V38.8343C4 38.1016 4.54128 37.4815 5.26731 37.3825L10.4473 36.6761H11.5462C12.3884 32.9119 13.8659 29.3875 15.8602 26.2213L15.4057 25.7669L11.947 21.2958C11.4957 20.7125 11.5483 19.8847 12.0698 19.3632L19.3632 12.0698C19.8847 11.5483 20.7125 11.4957 21.2959 11.9469L25.7669 15.4056L26.1886 15.8274C29.3598 13.8016 32.8958 12.2966 36.6761 11.4328V10.8869L37.3919 5.27974C37.4853 4.54816 38.1079 4 38.8454 4H49.1597C49.8973 4 50.5199 4.54816 50.6132 5.27974L51.3291 10.8869V11.3672C55.1484 12.2037 58.7232 13.6935 61.9303 15.7136L62.2383 15.4056L66.7093 11.9469C67.2927 11.4957 68.1205 11.5483 68.642 12.0698L75.9354 19.3632C76.4569 19.8847 76.5095 20.7125 76.0582 21.2958L72.5995 25.7669L72.3243 26.0421C74.3762 29.2542 75.8938 32.8407 76.752 36.6761H77.1183L82.7254 37.3919C83.457 37.4853 84.0051 38.1079 84.0051 38.8454V49.1597C84.0051 49.8973 83.457 50.5199 82.7254 50.6132L77.1183 51.3291H76.752C75.8938 55.1645 74.3762 58.7509 72.3243 61.9631L72.9104 62.5491L76.0737 66.7114C76.5171 67.2948 76.4613 68.116 75.9432 68.6342L68.6342 75.9432C68.1161 76.4613 67.2948 76.517 66.7114 76.0737L62.5492 72.9103L61.9303 72.2915C58.7232 74.3117 55.1484 75.8015 51.3291 76.6379V77.5578L50.6227 82.7378C50.5237 83.4639 49.9036 84.0051 49.1708 84.0051H38.8343Z" fill="white"/>
<path d="M37.3825 82.7378L33.4191 83.2783L33.4191 83.2783L37.3825 82.7378ZM36.6761 77.5578H32.6761V77.8293L32.7128 78.0983L36.6761 77.5578ZM36.6761 76.5723H40.6761V73.3832L37.5671 72.6728L36.6761 76.5723ZM26.1886 72.1778L28.3419 68.8068L25.633 67.0765L23.3602 69.3494L26.1886 72.1778ZM25.456 72.9103L27.8764 76.095L28.0925 75.9307L28.2845 75.7388L25.456 72.9103ZM21.2938 76.0737L18.8734 72.889L18.8734 72.889L21.2938 76.0737ZM19.371 75.9432L22.1995 73.1147L22.1995 73.1147L19.371 75.9432ZM12.062 68.6342L9.23357 71.4626L9.23358 71.4626L12.062 68.6342ZM11.9315 66.7114L8.74686 64.2911L8.74686 64.2911L11.9315 66.7114ZM15.0948 62.5491L12.2664 59.7207L12.0745 59.9127L11.9102 60.1288L15.0948 62.5491ZM15.8602 61.7838L18.6886 64.6122L20.9467 62.3541L19.2447 59.6519L15.8602 61.7838ZM11.5462 51.3291L15.4497 50.4557L14.7501 47.3291H11.5462V51.3291ZM10.4473 51.3291L9.90685 55.2924L10.1758 55.3291H10.4473V51.3291ZM5.26731 50.6227L5.80777 46.6594H5.80776L5.26731 50.6227ZM5.26731 37.3825L4.72686 33.4191L4.72685 33.4191L5.26731 37.3825ZM10.4473 36.6761V32.6761H10.1758L9.90685 32.7128L10.4473 36.6761ZM11.5462 36.6761V40.6761H14.7501L15.4497 37.5495L11.5462 36.6761ZM15.8602 26.2213L19.2447 28.3532L20.9467 25.6511L18.6886 23.3929L15.8602 26.2213ZM15.4057 25.7669L12.2419 28.2143L12.3974 28.4155L12.5773 28.5953L15.4057 25.7669ZM11.947 21.2958L8.78315 23.7433H8.78315L11.947 21.2958ZM12.0698 19.3632L9.24142 16.5347L9.24142 16.5347L12.0698 19.3632ZM19.3632 12.0698L22.1916 14.8982L22.1916 14.8982L19.3632 12.0698ZM21.2959 11.9469L18.8484 15.1108L18.8484 15.1108L21.2959 11.9469ZM25.7669 15.4056L28.5953 12.5772L28.4155 12.3974L28.2144 12.2418L25.7669 15.4056ZM26.1886 15.8274L23.3602 18.6558L25.6331 20.9287L28.3419 19.1983L26.1886 15.8274ZM36.6761 11.4328L37.5671 15.3323L40.6761 14.6219V11.4328H36.6761ZM36.6761 10.8869L32.7083 10.3804L32.6761 10.6326V10.8869H36.6761ZM37.3919 5.27974L33.4241 4.77321L33.4241 4.77322L37.3919 5.27974ZM50.6132 5.27974L46.6454 5.78626V5.78627L50.6132 5.27974ZM51.3291 10.8869H55.3291V10.6326L55.2969 10.3804L51.3291 10.8869ZM51.3291 11.3672H47.3291V14.586L50.4733 15.2746L51.3291 11.3672ZM61.9303 15.7136L59.7985 19.0982L62.5006 20.8002L64.7588 18.5421L61.9303 15.7136ZM62.2383 15.4056L59.7908 12.2418L59.5897 12.3974L59.4099 12.5772L62.2383 15.4056ZM66.7093 11.9469L64.2618 8.78312L64.2618 8.78312L66.7093 11.9469ZM68.642 12.0698L65.8136 14.8982L65.8136 14.8982L68.642 12.0698ZM75.9354 19.3632L78.7638 16.5347L75.9354 19.3632ZM76.0582 21.2958L72.8944 18.8483L72.8944 18.8484L76.0582 21.2958ZM72.5995 25.7669L75.428 28.5953L75.6078 28.4155L75.7634 28.2143L72.5995 25.7669ZM72.3243 26.0421L69.4959 23.2137L67.223 25.4865L68.9534 28.1954L72.3243 26.0421ZM76.752 36.6761L72.8485 37.5495L73.5481 40.6761H76.752V36.6761ZM77.1183 36.6761L77.6248 32.7083L77.3725 32.6761H77.1183V36.6761ZM82.7254 37.3919L83.2319 33.4241L83.2319 33.4241L82.7254 37.3919ZM82.7254 50.6132L82.2189 46.6454H82.2189L82.7254 50.6132ZM77.1183 51.3291V55.3291H77.3725L77.6248 55.2969L77.1183 51.3291ZM76.752 51.3291V47.3291H73.5481L72.8485 50.4557L76.752 51.3291ZM72.3243 61.9631L68.9534 59.8098L67.223 62.5186L69.4959 64.7915L72.3243 61.9631ZM72.9104 62.5491L76.095 60.1288L75.9308 59.9127L75.7388 59.7207L72.9104 62.5491ZM76.0737 66.7114L72.889 69.1317L72.8891 69.1318L76.0737 66.7114ZM75.9432 68.6342L78.7716 71.4626L78.7717 71.4626L75.9432 68.6342ZM68.6342 75.9432L65.8058 73.1147L68.6342 75.9432ZM66.7114 76.0737L69.1318 72.889L69.1318 72.889L66.7114 76.0737ZM62.5492 72.9103L59.7207 75.7388L59.9127 75.9307L60.1288 76.095L62.5492 72.9103ZM61.9303 72.2915L64.7588 69.4631L62.5006 67.2049L59.7985 68.907L61.9303 72.2915ZM51.3291 76.6379L50.4733 72.7305L47.3291 73.4191V76.6379H51.3291ZM51.3291 77.5578L55.2924 78.0983L55.3291 77.8293V77.5578H51.3291ZM50.6227 82.7378L46.6594 82.1974L50.6227 82.7378ZM33.4191 83.2783C33.7884 85.9863 36.1013 88.0051 38.8343 88.0051V80.0051C40.1018 80.0051 41.1745 80.9415 41.3458 82.1974L33.4191 83.2783ZM32.7128 78.0983L33.4191 83.2783L41.3458 82.1974L40.6394 77.0174L32.7128 78.0983ZM32.6761 76.5723V77.5578H40.6761V76.5723H32.6761ZM24.0353 75.5487C27.5861 77.817 31.548 79.5037 35.7851 80.4718L37.5671 72.6728C34.2436 71.9134 31.1335 70.5901 28.3419 68.8068L24.0353 75.5487ZM28.2845 75.7388L29.017 75.0062L23.3602 69.3494L22.6276 70.0819L28.2845 75.7388ZM23.7141 79.2583L27.8764 76.095L23.0357 69.7257L18.8734 72.889L23.7141 79.2583ZM16.5426 78.7716C18.4751 80.7041 21.5382 80.9121 23.7141 79.2583L18.8734 72.889C19.8826 72.122 21.3032 72.2185 22.1995 73.1147L16.5426 78.7716ZM9.23358 71.4626L16.5426 78.7716L22.1995 73.1147L14.8904 65.8057L9.23358 71.4626ZM8.74686 64.2911C7.09315 66.467 7.30103 69.53 9.23357 71.4626L14.8904 65.8057C15.7867 66.702 15.8831 68.1226 15.1162 69.1317L8.74686 64.2911ZM11.9102 60.1288L8.74686 64.2911L15.1162 69.1317L18.2795 64.9695L11.9102 60.1288ZM13.0317 58.9554L12.2664 59.7207L17.9233 65.3776L18.6886 64.6122L13.0317 58.9554ZM7.64272 52.2024C8.58669 56.4214 10.2425 60.3704 12.4756 63.9157L19.2447 59.6519C17.4893 56.865 16.1902 53.7652 15.4497 50.4557L7.64272 52.2024ZM10.4473 55.3291H11.5462V47.3291H10.4473V55.3291ZM4.72686 54.586L9.90685 55.2924L10.9878 47.3657L5.80777 46.6594L4.72686 54.586ZM0 49.1708C0 51.9039 2.01888 54.2167 4.72687 54.586L5.80776 46.6594C7.06368 46.8306 8 47.9033 8 49.1708H0ZM0 38.8343V49.1708H8V38.8343H0ZM4.72685 33.4191C2.01888 33.7884 0 36.1013 0 38.8343H8C8 40.1018 7.06368 41.1745 5.80778 41.3458L4.72685 33.4191ZM9.90685 32.7128L4.72686 33.4191L5.80777 41.3458L10.9878 40.6394L9.90685 32.7128ZM11.5462 32.6761H10.4473V40.6761H11.5462V32.6761ZM12.4756 24.0895C10.2425 27.6348 8.5867 31.5837 7.64273 35.8027L15.4497 37.5495C16.1902 34.24 17.4893 31.1402 19.2447 28.3532L12.4756 24.0895ZM12.5773 28.5953L13.0317 29.0498L18.6886 23.3929L18.2341 22.9384L12.5773 28.5953ZM8.78315 23.7433L12.2419 28.2143L18.5695 23.3194L15.1108 18.8484L8.78315 23.7433ZM9.24142 16.5347C7.29629 18.4799 7.09999 21.5675 8.78315 23.7433L15.1108 18.8484C15.8914 19.8575 15.8004 21.2895 14.8983 22.1916L9.24142 16.5347ZM16.5348 9.24138L9.24142 16.5347L14.8983 22.1916L22.1916 14.8982L16.5348 9.24138ZM23.7434 8.78313C21.5676 7.09996 18.4799 7.29626 16.5348 9.24139L22.1916 14.8982C21.2895 15.8004 19.8575 15.8914 18.8484 15.1108L23.7434 8.78313ZM28.2144 12.2418L23.7434 8.78312L18.8484 15.1108L23.3194 18.5695L28.2144 12.2418ZM29.017 12.9989L28.5953 12.5772L22.9385 18.2341L23.3602 18.6558L29.017 12.9989ZM35.7851 7.53332C31.548 8.50148 27.5861 10.1882 24.0353 12.4564L28.3419 19.1983C31.1335 17.4151 34.2436 16.0917 37.5671 15.3323L35.7851 7.53332ZM32.6761 10.8869V11.4328H40.6761V10.8869H32.6761ZM33.4241 4.77322L32.7083 10.3804L40.6439 11.3934L41.3597 5.78627L33.4241 4.77322ZM38.8454 0C36.0946 0 33.7724 2.04453 33.4241 4.77321L41.3597 5.78628C41.1981 7.05179 40.1212 8 38.8454 8V0ZM49.1597 0H38.8454V8H49.1597V0ZM54.581 4.77323C54.2327 2.04453 51.9106 0 49.1597 0V8C47.884 8 46.807 7.05179 46.6454 5.78626L54.581 4.77323ZM55.2969 10.3804L54.581 4.77321L46.6454 5.78627L47.3613 11.3934L55.2969 10.3804ZM55.3291 11.3672V10.8869H47.3291V11.3672H55.3291ZM64.0622 12.3291C60.4709 10.067 56.4655 8.39733 52.1848 7.45985L50.4733 15.2746C53.8313 16.01 56.9754 17.32 59.7985 19.0982L64.0622 12.3291ZM59.4099 12.5772L59.1019 12.8852L64.7588 18.5421L65.0668 18.2341L59.4099 12.5772ZM64.2618 8.78312L59.7908 12.2418L64.6858 18.5695L69.1568 15.1108L64.2618 8.78312ZM71.4705 9.24141C69.5253 7.29624 66.4376 7.09997 64.2618 8.78312L69.1568 15.1108C68.1477 15.8914 66.7157 15.8004 65.8136 14.8982L71.4705 9.24141ZM78.7638 16.5347L71.4705 9.24138L65.8136 14.8982L73.1069 22.1916L78.7638 16.5347ZM79.222 23.7434C80.9052 21.5676 80.7089 18.4799 78.7638 16.5347L73.1069 22.1916C72.2048 21.2895 72.1138 19.8574 72.8944 18.8483L79.222 23.7434ZM75.7634 28.2143L79.2221 23.7433L72.8944 18.8484L69.4357 23.3194L75.7634 28.2143ZM75.1528 28.8705L75.428 28.5953L69.7711 22.9384L69.4959 23.2137L75.1528 28.8705ZM80.6555 35.8027C79.6936 31.5039 77.9928 27.4855 75.6953 23.8888L68.9534 28.1954C70.7596 31.023 72.094 34.1774 72.8485 37.5495L80.6555 35.8027ZM77.1183 32.6761H76.752V40.6761H77.1183V32.6761ZM83.2319 33.4241L77.6248 32.7083L76.6117 40.6439L82.2189 41.3597L83.2319 33.4241ZM88.0051 38.8454C88.0051 36.0946 85.9606 33.7724 83.2319 33.4241L82.2189 41.3597C80.9533 41.1981 80.0051 40.1212 80.0051 38.8454H88.0051ZM88.0051 49.1597V38.8454H80.0051V49.1597H88.0051ZM83.2319 54.581C85.9606 54.2327 88.0051 51.9106 88.0051 49.1597H80.0051C80.0051 47.884 80.9533 46.807 82.2189 46.6454L83.2319 54.581ZM77.6248 55.2969L83.2319 54.581L82.2189 46.6454L76.6117 47.3613L77.6248 55.2969ZM76.752 55.3291H77.1183V47.3291H76.752V55.3291ZM75.6953 64.1164C77.9928 60.5197 79.6936 56.5013 80.6555 52.2024L72.8485 50.4557C72.094 53.8277 70.7596 56.9822 68.9534 59.8098L75.6953 64.1164ZM75.7388 59.7207L75.1528 59.1347L69.4959 64.7915L70.0819 65.3775L75.7388 59.7207ZM79.2583 64.2911L76.095 60.1288L69.7257 64.9695L72.889 69.1317L79.2583 64.2911ZM78.7717 71.4626C80.7041 69.53 80.9121 66.467 79.2583 64.291L72.8891 69.1318C72.1221 68.1226 72.2185 66.702 73.1148 65.8057L78.7717 71.4626ZM71.4626 78.7716L78.7716 71.4626L73.1148 65.8057L65.8058 73.1147L71.4626 78.7716ZM64.2911 79.2583C66.4671 80.9121 69.5301 80.7041 71.4626 78.7716L65.8058 73.1147C66.702 72.2185 68.1226 72.122 69.1318 72.889L64.2911 79.2583ZM60.1288 76.095L64.2911 79.2583L69.1318 72.889L64.9695 69.7257L60.1288 76.095ZM59.1019 75.1199L59.7207 75.7388L65.3776 70.0819L64.7588 69.4631L59.1019 75.1199ZM52.1848 80.5453C56.4655 79.6078 60.4709 77.9381 64.0622 75.6761L59.7985 68.907C56.9754 70.6852 53.8313 71.9951 50.4733 72.7305L52.1848 80.5453ZM55.3291 77.5578V76.6379H47.3291V77.5578H55.3291ZM54.586 83.2783L55.2924 78.0983L47.3657 77.0174L46.6594 82.1974L54.586 83.2783ZM49.1708 88.0051C51.9039 88.0051 54.2167 85.9863 54.586 83.2783L46.6594 82.1974C46.8306 80.9415 47.9033 80.0051 49.1708 80.0051V88.0051ZM38.8343 88.0051H49.1708V80.0051H38.8343V88.0051Z" fill="white" mask="url(#path-1-outside-1_77_177)"/>
<circle cx="44" cy="44" r="34" fill="#4A4A4A" stroke="white" stroke-width="4"/>
<path d="M21.9394 77.9765L9.88865 107.427C9.52268 108.321 10.3352 109.249 11.2702 109.005L21.9394 106.215L27.4573 115.92C27.9391 116.767 29.1846 116.69 29.5588 115.79L41.3485 87.4281M68.0606 77.9765L80.1114 107.427C80.4773 108.321 79.6648 109.249 78.7298 109.005L68.0606 106.215L62.4446 115.925C61.9562 116.769 60.7101 116.682 60.3435 115.778L50.5 91.5M40.4924 49.2752L34.7159 44.9578C32.4474 43.8288 31.3196 44.0712 29.517 45.7746C28.1642 48.265 28.1243 49.4276 29.517 51.0255L37.4375 58.2162C38.7774 59.4327 40.8219 59.4336 42.1629 58.2183L61.1723 40.9905C61.7628 39.1298 61.6241 38.0625 60.017 36.0896C57.9707 34.6155 56.8727 34.8212 54.9337 35.6229L40.4924 49.2752Z" stroke="white" stroke-width="4"/>
</svg>
