<svg width="39" height="40" viewBox="0 0 39 40" fill="none" xmlns="http://www.w3.org/2000/svg">
<path d="M7.49388 8H33.1507C35.5712 8 36.7911 9.18 36.7911 11.58V28.42C36.7911 30.8 35.5712 32 33.1507 32H7.49388C5.07342 32 3.85352 30.8 3.85352 28.42V11.58C3.85352 9.18 5.07342 8 7.49388 8ZM20.3126 25.2L33.3637 14.14C33.8284 13.74 34.1963 12.82 33.6154 12C33.0539 11.18 32.0276 11.16 31.3499 11.66L20.3126 19.38L9.2947 11.66C8.61697 11.16 7.5907 11.18 7.02915 12C6.44824 12.82 6.81615 13.74 7.28088 14.14L20.3126 25.2Z" fill="white"/>
</svg>
