<svg width="39" height="40" viewBox="0 0 39 40" fill="none" xmlns="http://www.w3.org/2000/svg">
<path d="M32.5309 11.4C27.8836 4 18.3954 1.8 11.0373 6.4C3.87272 11 1.54909 21 6.19636 28.4L6.58363 29L5.03454 35L10.8436 33.4L11.4245 33.8C13.9418 35.2 16.6527 36 19.3636 36C22.2682 36 25.1727 35.2 27.69 33.6C34.8545 28.8 36.9845 19 32.5309 11.4ZM28.4645 26.8C27.69 28 26.7218 28.8 25.3664 29C24.5918 29 23.6236 29.4 19.7509 27.8C16.4591 26.2 13.7482 23.6 11.8118 20.6C10.65 19.2 10.0691 17.4 9.87545 15.6C9.87545 14 10.4564 12.6 11.4245 11.6C11.8118 11.2 12.1991 11 12.5864 11H13.5545C13.9418 11 14.3291 11 14.5227 11.8C14.91 12.8 15.8782 15.2 15.8782 15.4C16.0718 15.6 16.0718 16 15.8782 16.2C16.0718 16.6 15.8782 17 15.6845 17.2C15.4909 17.4 15.2973 17.8 15.1036 18C14.7164 18.2 14.5227 18.6 14.7164 19C15.4909 20.2 16.4591 21.4 17.4273 22.4C18.5891 23.4 19.7509 24.2 21.1064 24.8C21.4936 25 21.8809 25 22.0745 24.6C22.2682 24.2 23.2364 23.2 23.6236 22.8C24.0109 22.4 24.2045 22.4 24.5918 22.6L27.69 24.2C28.0773 24.4 28.4645 24.6 28.6582 24.8C28.8518 25.4 28.8518 26.2 28.4645 26.8Z" fill="white"/>
</svg>
