<svg width="350" height="70" viewBox="0 0 350 70" fill="none" xmlns="http://www.w3.org/2000/svg">
<path d="M337.306 52.8339C336.724 52.8339 336.234 53.0402 335.829 53.4473C335.425 53.8545 335.22 54.3811 335.22 55.0271V67.8122C335.22 68.4528 335.425 68.9794 335.829 69.3865C336.234 69.7937 336.729 70 337.306 70H347.914C348.496 70 348.987 69.7937 349.391 69.3865C349.801 68.9794 350 68.4528 350 67.8122V55.0217C350 54.3811 349.795 53.8545 349.391 53.4419C348.987 53.0347 348.496 52.8284 347.914 52.8284H337.306V52.8339ZM0 36.1075V36.7155V67.367C0 68.0619 0.25873 68.6808 0.781576 69.2074C1.30442 69.734 1.91351 69.9946 2.60884 69.9946L55.5942 69.9892L55.7667 69.9946H68.1857C68.9349 69.9946 69.5763 69.7503 70.0992 69.2508C70.622 68.7568 70.8808 68.1216 70.8808 67.367V55.722C70.8808 54.9674 70.622 54.3214 70.0992 53.7948C69.5763 53.2682 68.9403 53.0076 68.1857 53.0076H59.0547L59.0224 53.089L26.649 53.0836C25.032 53.0836 24.0671 52.0358 24.0725 50.1412L24.0833 36.1889C24.0833 30.0597 25.8944 25.3312 29.5166 21.9978C33.1388 18.6699 38.2001 17.0033 44.6899 17.0033C46.6627 17.0033 48.6194 17.1498 50.5598 17.443C52.5003 17.7362 54.4569 18.1433 56.4297 18.6699C60.4292 19.7231 63.7064 20.7166 66.256 21.645C67.1831 21.9978 68.024 21.8947 68.7786 21.3355C69.5332 20.7818 69.8512 19.9783 69.738 18.9251L68.7786 6.05321C68.7193 5.58632 68.5199 5.11944 68.1695 4.65255C67.8191 4.18567 67.4149 3.89251 66.9513 3.77851C63.8196 2.7253 60.0519 1.84039 55.6481 1.1075C51.2444 0.380026 46.2261 0.0108599 40.6042 0.0108599C34.1683 0.0108599 28.4332 0.814336 23.388 2.42128C18.3428 4.02823 14.0845 6.37894 10.6079 9.4734C7.1312 12.5679 4.49001 16.3898 2.69509 20.9446C0.959451 25.3529 0.0646821 30.4017 0 36.1075ZM252.271 52.8339H247.425C246.843 52.8339 246.352 53.0402 245.948 53.4473C245.539 53.8545 245.339 54.3811 245.339 55.0217V67.8067C245.339 68.4473 245.544 68.9739 245.948 69.3811C246.352 69.7883 246.843 69.9946 247.425 69.9946H251.823H252.729V68.8219V52.8284H258.038C258.62 52.8284 259.111 53.0347 259.515 53.4419C259.919 53.8491 260.124 54.3757 260.124 55.0163V67.8013C260.124 68.4419 259.919 68.9685 259.515 69.3757C259.133 69.7611 258.669 69.9674 258.13 69.9892L328.623 69.9783C329.172 69.9783 329.593 69.468 329.97 68.9685C330.347 68.4745 330.536 67.9642 330.536 67.4376V33.2899C330.536 32.5299 330.277 31.9001 329.755 31.4061C329.232 30.9066 328.596 30.6623 327.841 30.6623H300.017C299.262 30.6623 298.626 30.9066 298.103 31.4061C297.581 31.9055 297.322 32.5299 297.322 33.2899V44.9349C297.322 45.6949 297.586 46.3355 298.103 46.8621C298.626 47.3887 299.262 47.6493 300.017 47.6493H309.148L309.213 54.4571L278.931 54.4463C277.303 54.4463 276.349 53.3985 276.354 51.5038L276.365 36.0858C276.37 30.3637 278.332 25.7058 282.364 22.2476C286.498 18.7025 292.045 16.9924 298.885 16.9924C301.09 16.9924 303.278 17.1118 305.45 17.3453C307.622 17.5787 309.784 17.899 311.929 18.3062C316.333 19.1857 320.101 20.0869 323.232 21.0206C324.219 21.3138 325.06 21.1509 325.755 20.5375C326.45 19.924 326.741 19.1205 326.623 18.127L325.146 5.95549C325.087 5.4886 324.871 5.03801 324.494 4.59827C324.116 4.15853 323.696 3.88165 323.232 3.76765C320.219 2.83388 316.247 1.97069 311.32 1.1835C306.394 0.396313 300.858 0 294.713 0C282.073 0 271.843 3.26819 264.016 9.80999C256.189 16.4658 252.276 25.4886 252.276 36.873C252.276 37.5299 252.287 38.1813 252.314 38.8219C252.292 38.8111 252.276 38.8111 252.276 38.8274V52.8339H252.271ZM226.662 42.025C234.774 38.6591 240.968 32.3399 240.968 20.6026C240.968 14.7068 238.531 9.94571 233.664 6.32465C229.142 2.99675 223.142 1.33551 215.666 1.33551H172.011C171.316 1.33551 170.707 1.59609 170.184 2.1227C169.661 2.6493 169.402 3.26276 169.402 3.96309V52.8339H174.706C175.288 52.8339 175.779 53.0402 176.189 53.4473C176.593 53.8545 176.798 54.3811 176.798 55.0217V67.8067C176.798 68.4473 176.598 68.9739 176.189 69.3811C175.8 69.772 175.337 69.9729 174.792 69.9946H191.319C192.073 69.9946 192.709 69.734 193.232 69.2074C193.755 68.6808 194.014 68.0673 194.014 67.367V45.7383H202.433C203.204 46.2486 203.883 47.0413 204.309 47.8393L215.354 68.5071C215.575 68.9197 215.92 69.2671 216.356 69.5548C216.787 69.848 217.24 69.9946 217.704 69.9946H239.793C240.892 69.9946 241.69 69.5711 242.18 68.7242C242.671 67.8773 242.628 66.9598 242.051 65.9663C237.75 58.6645 232.645 48.0456 226.878 42.2313L226.662 42.025ZM207.053 17.0087C210.244 17.0087 212.675 17.5027 214.356 18.4962C216.038 19.4897 216.879 21.0641 216.879 23.2248C216.879 25.7926 215.774 27.5733 213.575 28.5668C211.37 29.5603 208.158 30.0543 203.921 30.0543H193.486V17.0033H207.053V17.0087ZM169.397 52.8339H169.16H164.093C163.511 52.8339 163.02 53.0402 162.616 53.4473C162.212 53.8545 162.007 54.3811 162.007 55.0217V67.8067C162.007 68.4473 162.212 68.9739 162.616 69.3811C163.02 69.7883 163.516 69.9946 164.093 69.9946H168.491H169.397V52.8339ZM123.715 22.6167C121.225 19.2888 118.772 15.9772 116.368 12.6764C113.964 9.37568 111.485 5.9772 108.935 2.47558C108.817 2.18242 108.515 1.92182 108.019 1.68838C107.529 1.45494 107.108 1.34094 106.758 1.34094H87.4555C86.7602 1.34094 86.1511 1.60153 85.6283 2.12813C85.1054 2.65473 84.8467 3.2682 84.8467 3.96852V52.8393H84.6095H79.5428C78.9606 52.8393 78.4701 53.0456 78.0659 53.4528C77.6616 53.8599 77.4568 54.3865 77.4568 55.0271V67.8122C77.4568 68.4528 77.6616 68.9794 78.0659 69.3865C78.4701 69.7937 78.966 70 79.5428 70H83.9411H84.8467V52.8339H90.1506C90.7328 52.8339 91.2233 53.0402 91.6275 53.4473C92.0318 53.8545 92.2366 54.3811 92.2366 55.0217V67.8067C92.2366 68.4473 92.0318 68.9739 91.6275 69.3811C91.2394 69.772 90.7759 69.9729 90.2315 69.9946H104.413C105.168 69.9946 105.804 69.734 106.327 69.2074C106.849 68.6808 107.108 68.0673 107.108 67.367V35.6623L131.628 68.9414C131.86 69.2345 132.21 69.4788 132.674 69.6851C133.137 69.8914 133.515 69.9892 133.806 69.9892H153.286C154.04 69.9892 154.676 69.7286 155.199 69.202C155.722 68.6754 155.981 68.0619 155.981 67.3616V3.95222C155.981 3.2519 155.722 2.63843 155.199 2.11183C154.676 1.58523 154.04 1.32465 153.286 1.32465H136.328C135.574 1.32465 134.938 1.58523 134.415 2.11183C133.892 2.63843 133.633 3.2519 133.633 3.95222V36.1835C131.951 33.8491 130.302 31.5581 128.674 29.3105C127.052 27.0684 125.397 24.8371 123.715 22.6167Z" fill="#0B322B"/>
</svg>
