<svg width="125" height="39" viewBox="0 0 125 39" fill="none" xmlns="http://www.w3.org/2000/svg">
<path d="M60.12 13H56.8V27H60.26C62.46 27 63.6 25.84 63.6 23.68V22.54C63.6 21.06 63.14 20 61.96 19.54C62.94 19.08 63.38 18.16 63.38 16.72V16.22C63.38 14.06 62.4 13 60.12 13ZM59.98 20.7C60.98 20.7 61.4 21.1 61.4 22.4V23.62C61.4 24.66 61 25 60.26 25H59V20.7H59.98ZM60.06 15C60.84 15 61.18 15.44 61.18 16.44V17.22C61.18 18.34 60.68 18.7 59.86 18.7H59V15H60.06ZM69.225 21.78V23.78C69.225 24.78 68.785 25.14 68.085 25.14C67.385 25.14 66.945 24.78 66.945 23.78V16.22C66.945 15.22 67.385 14.84 68.085 14.84C68.785 14.84 69.225 15.22 69.225 16.22V17.72H71.305V16.36C71.305 14.12 70.185 12.84 68.025 12.84C65.865 12.84 64.745 14.12 64.745 16.36V23.64C64.745 25.88 65.865 27.16 68.025 27.16C70.185 27.16 71.305 25.88 71.305 23.64V21.78H69.225ZM74.8398 15H78.6398V13H72.6398V27H78.6398V25H74.8398V20.9H77.8598V18.9H74.8398V15ZM87.9886 13H84.7686L82.5286 27H84.5486L84.9286 24.46H87.6286L88.0086 27H90.2286L87.9886 13ZM86.2686 15.48L87.3286 22.56H85.2086L86.2686 15.48ZM96.2731 27H98.5331L95.4731 19.24L98.5331 13H96.3331L93.4531 19.1V13H91.2531V27H93.4531V22.7L94.1331 21.42L96.2731 27ZM99.5344 27H105.294V28.88H107.434V25.04H106.474V13H104.234V25H101.734V13H99.5344V27ZM112.736 20.58L113.636 17.14V27H115.616V13H113.196L111.396 18.78L110.596 21.86V13H108.636V27H110.896L112.736 20.58ZM121.271 20.58L122.171 17.14V27H124.151V13H121.731L119.931 18.78L119.131 21.86V13H117.171V27H119.431L121.271 20.58Z" fill="black"/>
<mask id="path-2-outside-1_77_145" maskUnits="userSpaceOnUse" x="0" y="0" width="39" height="39" fill="black">
<rect fill="white" width="39" height="39"/>
<path fill-rule="evenodd" clip-rule="evenodd" d="M17.3682 36C17.066 36 16.8102 35.7767 16.7694 35.4772L16.478 33.3406V32.9342C14.9188 32.5779 13.4602 31.9571 12.1522 31.1215L11.85 31.4237L10.1332 32.7285C9.89259 32.9113 9.55385 32.8884 9.34014 32.6746L6.32536 29.6599C6.11165 29.4461 6.08866 29.1074 6.27154 28.8668L7.57633 27.15L7.892 26.8343C7.06942 25.5283 6.46001 24.0746 6.11262 22.522H5.65934L3.52273 22.2306C3.22326 22.1898 3 21.934 3 21.6318V17.3682C3 17.066 3.22326 16.8102 3.52273 16.7694L5.65934 16.478H6.11263C6.46002 14.9254 7.06943 13.4717 7.89202 12.1657L7.70454 11.9782L6.27792 10.1341C6.09178 9.89346 6.11349 9.552 6.32859 9.33689L9.3369 6.32858C9.55201 6.11347 9.89347 6.09177 10.1341 6.2779L11.9783 7.70452L12.1522 7.87848C13.4603 7.04293 14.9188 6.42215 16.478 6.06586V5.84066L16.7733 3.52786C16.8118 3.2261 17.0686 3 17.3728 3H21.6272C21.9314 3 22.1882 3.2261 22.2267 3.52786L22.522 5.84066V6.0388C24.0973 6.38381 25.5718 6.99832 26.8947 7.83157L27.0218 7.70452L28.8659 6.2779C29.1065 6.09176 29.448 6.11347 29.6631 6.32858L32.6714 9.33689C32.8865 9.552 32.9082 9.89346 32.7221 10.1341L31.2955 11.9782L31.182 12.0918C32.0283 13.4167 32.6543 14.896 33.0083 16.478H33.1593L35.4721 16.7733C35.7739 16.8118 36 17.0686 36 17.3728V21.6272C36 21.9314 35.7739 22.1882 35.4721 22.2267L33.1593 22.522H33.0083C32.6543 24.104 32.0283 25.5833 31.182 26.9082L31.4237 27.15L32.7285 28.8668C32.9114 29.1074 32.8884 29.4461 32.6747 29.6599L29.6599 32.6746C29.4462 32.8884 29.1074 32.9113 28.8668 32.7285L27.15 31.4237L26.8947 31.1684C25.5719 32.0017 24.0973 32.6162 22.522 32.9612V33.3406L22.2306 35.4772C22.1898 35.7767 21.934 36 21.6318 36H17.3682Z"/>
</mask>
<path d="M16.7694 35.4772L13.7969 35.8826L13.7969 35.8826L16.7694 35.4772ZM16.478 33.3406H13.478V33.5442L13.5055 33.746L16.478 33.3406ZM16.478 32.9342H19.478V30.5423L17.1463 30.0095L16.478 32.9342ZM12.1522 31.1215L13.7672 28.5933L11.7355 27.2955L10.0309 29.0002L12.1522 31.1215ZM11.85 31.4237L13.6653 33.8122L13.8274 33.689L13.9714 33.545L11.85 31.4237ZM10.1332 32.7285L11.9485 35.1169L10.1332 32.7285ZM9.34014 32.6746L11.4615 30.5533L11.4615 30.5533L9.34014 32.6746ZM6.32536 29.6599L4.20404 31.7812L4.20404 31.7812L6.32536 29.6599ZM6.27154 28.8668L3.88305 27.0515L3.88305 27.0515L6.27154 28.8668ZM7.57633 27.15L5.455 25.0286L5.31104 25.1726L5.18784 25.3347L7.57633 27.15ZM7.892 26.8343L10.0133 28.9556L11.7069 27.262L10.4304 25.2354L7.892 26.8343ZM6.11262 22.522L9.04024 21.8669L8.51557 19.522H6.11262V22.522ZM5.65934 22.522L5.254 25.4945L5.45573 25.522H5.65934V22.522ZM3.52273 22.2306L3.92807 19.2581H3.92807L3.52273 22.2306ZM3.52273 16.7694L3.11739 13.7969L3.11739 13.7969L3.52273 16.7694ZM5.65934 16.478V13.478H5.45574L5.254 13.5055L5.65934 16.478ZM6.11263 16.478V19.478H8.51557L9.04024 17.133L6.11263 16.478ZM7.89202 12.1657L10.4304 13.7646L11.7069 11.738L10.0133 10.0444L7.89202 12.1657ZM7.70454 11.9782L5.33167 13.8139L5.44836 13.9647L5.58322 14.0996L7.70454 11.9782ZM6.27792 10.1341L8.65079 8.29846V8.29846L6.27792 10.1341ZM6.32859 9.33689L4.20727 7.21557L4.20727 7.21557L6.32859 9.33689ZM9.3369 6.32858L11.4582 8.4499L11.4582 8.4499L9.3369 6.32858ZM10.1341 6.2779L8.29847 8.65077L8.29847 8.65077L10.1341 6.2779ZM11.9783 7.70452L14.0996 5.58321L13.9647 5.44835L13.8139 5.33165L11.9783 7.70452ZM12.1522 7.87848L10.0309 9.9998L11.7356 11.7045L13.7672 10.4067L12.1522 7.87848ZM16.478 6.06586L17.1463 8.99048L19.478 8.45768V6.06586H16.478ZM16.478 5.84066L13.5022 5.46076L13.478 5.64994V5.84066H16.478ZM16.7733 3.52786L13.7974 3.14796V3.14796L16.7733 3.52786ZM22.2267 3.52786L19.2509 3.90774L19.2509 3.90776L22.2267 3.52786ZM22.522 5.84066H25.522V5.64994L25.4978 5.46076L22.522 5.84066ZM22.522 6.0388H19.522V8.4529L21.8802 8.96935L22.522 6.0388ZM26.8947 7.83157L25.2958 10.37L27.3224 11.6465L29.016 9.95289L26.8947 7.83157ZM27.0218 7.70452L25.1861 5.33165L25.0353 5.44835L24.9004 5.5832L27.0218 7.70452ZM28.8659 6.2779L30.7015 8.65077L30.7015 8.65077L28.8659 6.2779ZM29.6631 6.32858L27.5418 8.4499L27.5418 8.4499L29.6631 6.32858ZM32.6714 9.33689L30.5501 11.4582L30.5501 11.4582L32.6714 9.33689ZM32.7221 10.1341L30.3492 8.29846L30.3492 8.29846L32.7221 10.1341ZM31.2955 11.9782L33.4168 14.0996L33.5516 13.9647L33.6683 13.8139L31.2955 11.9782ZM31.182 12.0918L29.0606 9.97043L27.356 11.6751L28.6538 13.7067L31.182 12.0918ZM33.0083 16.478L30.0807 17.1331L30.6053 19.478H33.0083V16.478ZM33.1593 16.478L33.5392 13.5022L33.35 13.478H33.1593V16.478ZM35.4721 16.7733L35.0922 19.7491L35.4721 16.7733ZM35.4721 22.2267L35.0922 19.2509L35.0922 19.2509L35.4721 22.2267ZM33.1593 22.522V25.522H33.35L33.5392 25.4978L33.1593 22.522ZM33.0083 22.522V19.522H30.6053L30.0807 21.8669L33.0083 22.522ZM31.182 26.9082L28.6538 25.2933L27.356 27.3249L29.0607 29.0296L31.182 26.9082ZM31.4237 27.15L33.8122 25.3347L33.689 25.1726L33.545 25.0286L31.4237 27.15ZM32.7285 28.8668L30.34 30.682L30.34 30.682L32.7285 28.8668ZM32.6747 29.6599L34.796 31.7812L34.796 31.7812L32.6747 29.6599ZM29.6599 32.6746L27.5386 30.5533H27.5386L29.6599 32.6746ZM28.8668 32.7285L27.0515 35.1169L27.0515 35.117L28.8668 32.7285ZM27.15 31.4237L25.0286 33.545L25.1726 33.689L25.3347 33.8122L27.15 31.4237ZM26.8947 31.1684L29.0161 29.0471L27.3224 27.3535L25.2958 28.63L26.8947 31.1684ZM22.522 32.9612L21.8802 30.0307L19.522 30.5471V32.9612H22.522ZM22.522 33.3406L25.4945 33.746L25.522 33.5442V33.3406H22.522ZM22.2306 35.4772L19.2581 35.0719V35.0719L22.2306 35.4772ZM13.7969 35.8826C14.0404 37.6685 15.5658 39 17.3682 39V33C18.5662 33 19.58 33.8849 19.7419 35.0719L13.7969 35.8826ZM13.5055 33.746L13.7969 35.8826L19.7419 35.0719L19.4505 32.9353L13.5055 33.746ZM13.478 32.9342V33.3406H19.478V32.9342H13.478ZM10.5372 33.6497C12.13 34.6672 13.9079 35.4242 15.8097 35.8588L17.1463 30.0095C15.9296 29.7315 14.7905 29.247 13.7672 28.5933L10.5372 33.6497ZM13.9714 33.545L14.2735 33.2428L10.0309 29.0002L9.72873 29.3023L13.9714 33.545ZM11.9485 35.1169L13.6653 33.8122L10.0348 29.0352L8.31797 30.34L11.9485 35.1169ZM7.21881 34.7959C8.49334 36.0705 10.5134 36.2076 11.9485 35.1169L8.31797 30.34C9.27175 29.6151 10.6144 29.7062 11.4615 30.5533L7.21881 34.7959ZM4.20404 31.7812L7.21882 34.796L11.4615 30.5533L8.44668 27.5385L4.20404 31.7812ZM3.88305 27.0515C2.79242 28.4866 2.92952 30.5067 4.20404 31.7812L8.44669 27.5385C9.29378 28.3856 9.38489 29.7282 8.66003 30.682L3.88305 27.0515ZM5.18784 25.3347L3.88305 27.0515L8.66002 30.682L9.96481 28.9652L5.18784 25.3347ZM5.77068 24.713L5.455 25.0286L9.69765 29.2713L10.0133 28.9556L5.77068 24.713ZM3.185 23.177C3.60871 25.0707 4.35189 26.8429 5.35359 28.4332L10.4304 25.2354C9.78695 24.2138 9.31132 23.0785 9.04024 21.8669L3.185 23.177ZM5.65934 25.522H6.11262V19.522H5.65934V25.522ZM3.11739 25.2031L5.254 25.4945L6.06468 19.5495L3.92807 19.2581L3.11739 25.2031ZM0 21.6318C0 23.4342 1.33147 24.9596 3.1174 25.2031L3.92807 19.2581C5.11506 19.42 6 20.4338 6 21.6318H0ZM0 17.3682V21.6318H6V17.3682H0ZM3.11739 13.7969C1.33147 14.0404 0 15.5658 0 17.3682H6C6 18.5662 5.11506 19.58 3.92808 19.7419L3.11739 13.7969ZM5.254 13.5055L3.11739 13.7969L3.92807 19.7419L6.06468 19.4505L5.254 13.5055ZM6.11263 13.478H5.65934V19.478H6.11263V13.478ZM5.35361 10.5668C4.35191 12.1571 3.60872 13.9293 3.18501 15.823L9.04024 17.133C9.31132 15.9215 9.78696 14.7862 10.4304 13.7646L5.35361 10.5668ZM5.58322 14.0996L5.7707 14.287L10.0133 10.0444L9.82586 9.85692L5.58322 14.0996ZM3.90505 11.9697L5.33167 13.8139L10.0774 10.1426L8.65079 8.29846L3.90505 11.9697ZM4.20727 7.21557C2.92445 8.49839 2.79499 10.5347 3.90505 11.9697L8.65079 8.29846C9.38857 9.25217 9.30252 10.6056 8.44992 11.4582L4.20727 7.21557ZM7.21558 4.20726L4.20727 7.21557L8.44991 11.4582L11.4582 8.4499L7.21558 4.20726ZM11.9697 3.90504C10.5348 2.79498 8.4984 2.92444 7.21558 4.20726L11.4582 8.4499C10.6056 9.30251 9.25218 9.38855 8.29847 8.65077L11.9697 3.90504ZM13.8139 5.33165L11.9697 3.90503L8.29847 8.65077L10.1426 10.0774L13.8139 5.33165ZM14.2735 5.75717L14.0996 5.58321L9.85693 9.82584L10.0309 9.9998L14.2735 5.75717ZM15.8097 3.14123C13.9079 3.5758 12.13 4.33285 10.5372 5.35028L13.7672 10.4067C14.7905 9.75301 15.9296 9.26849 17.1463 8.99048L15.8097 3.14123ZM13.478 5.84066V6.06586H19.478V5.84066H13.478ZM13.7974 3.14796L13.5022 5.46076L19.4539 6.22055L19.7491 3.90776L13.7974 3.14796ZM17.3728 0C15.5586 0 14.0272 1.34838 13.7974 3.14796L19.7491 3.90776C19.5964 5.10382 18.5786 6 17.3728 6V0ZM21.6272 0H17.3728V6H21.6272V0ZM25.2026 3.14798C24.9728 1.34838 23.4414 0 21.6272 0V6C20.4214 6 19.4036 5.10382 19.2509 3.90774L25.2026 3.14798ZM25.4978 5.46076L25.2026 3.14796L19.2509 3.90776L19.5461 6.22055L25.4978 5.46076ZM25.522 6.0388V5.84066H19.522V6.0388H25.522ZM28.4936 5.29315C26.8827 4.27846 25.0852 3.52904 23.1638 3.10825L21.8802 8.96935C23.1095 9.23857 24.261 9.71817 25.2958 10.37L28.4936 5.29315ZM24.9004 5.5832L24.7734 5.71025L29.016 9.95289L29.1431 9.82584L24.9004 5.5832ZM27.0303 3.90503L25.1861 5.33165L28.8574 10.0774L30.7015 8.65077L27.0303 3.90503ZM31.7844 4.20726C30.5016 2.92444 28.4653 2.79498 27.0303 3.90504L30.7015 8.65077C29.7478 9.38855 28.3944 9.30251 27.5418 8.4499L31.7844 4.20726ZM34.7927 7.21557L31.7844 4.20726L27.5418 8.4499L30.5501 11.4582L34.7927 7.21557ZM35.095 11.9697C36.205 10.5348 36.0756 8.4984 34.7927 7.21557L30.5501 11.4582C29.6975 10.6056 29.6115 9.25216 30.3492 8.29846L35.095 11.9697ZM33.6683 13.8139L35.095 11.9697L30.3492 8.29846L28.9226 10.1426L33.6683 13.8139ZM33.3033 14.2131L33.4168 14.0996L29.1742 9.85692L29.0606 9.97043L33.3033 14.2131ZM35.9359 15.823C35.5042 13.8934 34.7407 12.0901 33.7102 10.4768L28.6538 13.7067C29.3159 14.7433 29.8044 15.8986 30.0807 17.1331L35.9359 15.823ZM33.1593 13.478H33.0083V19.478H33.1593V13.478ZM35.852 13.7974L33.5392 13.5022L32.7794 19.4539L35.0922 19.7491L35.852 13.7974ZM39 17.3728C39 15.5586 37.6516 14.0271 35.852 13.7974L35.0922 19.7491C33.8962 19.5964 33 18.5786 33 17.3728H39ZM39 21.6272V17.3728H33V21.6272H39ZM35.852 25.2026C37.6516 24.9728 39 23.4414 39 21.6272H33C33 20.4214 33.8962 19.4035 35.0922 19.2509L35.852 25.2026ZM33.5392 25.4978L35.852 25.2026L35.0922 19.2509L32.7794 19.5461L33.5392 25.4978ZM33.0083 25.522H33.1593V19.522H33.0083V25.522ZM33.7102 28.5232C34.7408 26.9099 35.5042 25.1066 35.9359 23.177L30.0807 21.8669C29.8045 23.1014 29.3159 24.2567 28.6538 25.2933L33.7102 28.5232ZM33.545 25.0286L33.3033 24.7869L29.0607 29.0296L29.3024 29.2713L33.545 25.0286ZM35.117 27.0515L33.8122 25.3347L29.0352 28.9652L30.34 30.682L35.117 27.0515ZM34.796 31.7812C36.0705 30.5067 36.2076 28.4866 35.117 27.0515L30.34 30.682C29.6151 29.7282 29.7062 28.3856 30.5533 27.5385L34.796 31.7812ZM31.7812 34.796L34.796 31.7812L30.5533 27.5385L27.5386 30.5533L31.7812 34.796ZM27.0515 35.117C28.4866 36.2076 30.5067 36.0705 31.7812 34.796L27.5386 30.5533C28.3856 29.7062 29.7283 29.6151 30.682 30.34L27.0515 35.117ZM25.3347 33.8122L27.0515 35.1169L30.682 30.34L28.9652 29.0352L25.3347 33.8122ZM24.7734 33.2898L25.0286 33.545L29.2713 29.3023L29.0161 29.0471L24.7734 33.2898ZM23.1638 35.8918C25.0852 35.471 26.8827 34.7215 28.4936 33.7068L25.2958 28.63C24.261 29.2818 23.1095 29.7614 21.8802 30.0307L23.1638 35.8918ZM25.522 33.3406V32.9612H19.522V33.3406H25.522ZM25.2031 35.8826L25.4945 33.746L19.5495 32.9353L19.2581 35.0719L25.2031 35.8826ZM21.6318 39C23.4342 39 24.9596 37.6685 25.2031 35.8826L19.2581 35.0719C19.42 33.8849 20.4338 33 21.6318 33V39ZM17.3682 39H21.6318V33H17.3682V39Z" fill="black" mask="url(#path-2-outside-1_77_145)"/>
<circle cx="19.5" cy="19.5" r="9" stroke="black" stroke-width="3"/>
</svg>
