<svg width="25" height="25" viewBox="0 0 25 25" fill="none" xmlns="http://www.w3.org/2000/svg">
<path d="M1.17702 1.17699C-0.292617 2.64662 -0.292617 5.02974 1.17702 6.49938L7.03165 12.354L1.17702 18.2086C-0.292617 19.6783 -0.292617 22.0614 1.17702 23.531C2.64665 25.0007 5.02977 25.0007 6.49941 23.531L12.354 17.6764L18.2087 23.531C19.6783 25.0007 22.0614 25.0007 23.5311 23.531C25.0007 22.0614 25.0007 19.6783 23.5311 18.2086L17.6764 12.354L23.5311 6.49938C25.0007 5.02974 25.0007 2.64662 23.5311 1.17699C22.0614 -0.292647 19.6783 -0.292647 18.2087 1.17699L12.354 7.03161L6.49941 1.17699C5.02977 -0.292647 2.64665 -0.292648 1.17702 1.17699Z" fill="#191919"/>
</svg>
