<svg width="158" height="31" viewBox="0 0 158 31" fill="none" xmlns="http://www.w3.org/2000/svg">
<path d="M2.718 20.5V9.7H5.958V7.9H0.738V20.5H2.718ZM6.73622 20.518H7.04222C9.02222 20.518 9.85022 19.618 9.92222 17.314L10.1382 9.7H11.8662V20.5H13.8822V7.9H8.28422L7.96022 17.422C7.92422 18.592 7.63622 18.718 6.73622 18.718V20.518ZM19.7897 7.9H16.8917L14.8757 20.5H16.6937L17.0357 18.214H19.4657L19.8077 20.5H21.8057L19.7897 7.9ZM18.2417 10.132L19.1957 16.504H17.2877L18.2417 10.132ZM25.7158 7.9H22.7278V20.5H25.8418C27.8218 20.5 28.8478 19.456 28.8478 17.512V16.486C28.8478 15.154 28.4338 14.2 27.3718 13.786C28.2538 13.372 28.6498 12.544 28.6498 11.248V10.798C28.6498 8.854 27.7678 7.9 25.7158 7.9ZM25.5898 14.83C26.4898 14.83 26.8678 15.19 26.8678 16.36V17.458C26.8678 18.394 26.5078 18.7 25.8418 18.7H24.7078V14.83H25.5898ZM25.6618 9.7C26.3638 9.7 26.6698 10.096 26.6698 10.996V11.698C26.6698 12.706 26.2198 13.03 25.4818 13.03H24.7078V9.7H25.6618ZM32.0203 15.1H34.2703V20.5H36.2863V7.9H34.2703V13.3H32.0203V7.9H30.0403V20.5H32.0203V15.1ZM42.114 7.9H39.216L37.2 20.5H39.018L39.36 18.214H41.79L42.132 20.5H44.13L42.114 7.9ZM40.566 10.132L41.52 16.504H39.612L40.566 10.132ZM46.708 20.5C46.816 20.176 46.888 19.978 46.888 18.952V16.972C46.888 15.802 47.284 15.37 48.184 15.37H48.868V20.5H50.848V7.9H47.86C45.808 7.9 44.926 8.854 44.926 10.798V11.788C44.926 13.084 45.34 13.93 46.222 14.344C45.232 14.758 44.908 15.712 44.908 17.026V18.97C44.908 19.582 44.89 20.032 44.692 20.5H46.708ZM48.868 9.7V13.57H48.094C47.356 13.57 46.906 13.246 46.906 12.238V10.996C46.906 10.096 47.212 9.7 47.914 9.7H48.868Z" fill="black"/>
<mask id="path-2-outside-1_77_1128" maskUnits="userSpaceOnUse" x="59" y="0" width="31" height="31" fill="black">
<rect fill="white" x="59" width="31" height="31"/>
<path fill-rule="evenodd" clip-rule="evenodd" d="M72.885 28C72.6561 28 72.4623 27.8309 72.4313 27.604L72.2106 25.9853V25.6773C71.0294 25.4074 69.9245 24.9371 68.9335 24.3041L68.7046 24.5331L67.404 25.5216C67.2217 25.6601 66.965 25.6427 66.8031 25.4808L64.5192 23.1969C64.3573 23.035 64.3399 22.7784 64.4784 22.5961L65.4669 21.2954L65.7061 21.0562C65.0829 20.0669 64.6213 18.9656 64.3581 17.7894H64.0147L62.396 17.5687C62.1691 17.5377 62 17.3439 62 17.115V13.885C62 13.6561 62.1691 13.4623 62.396 13.4313L64.0147 13.2106H64.3581C64.6212 12.0344 65.0829 10.9331 65.7061 9.94373L65.564 9.8017L64.4833 8.40461C64.3423 8.22232 64.3587 7.96364 64.5217 7.80068L66.8007 5.52165C66.9636 5.35869 67.2223 5.34225 67.4046 5.48326L68.8017 6.56404L68.9335 6.6958C69.9244 6.06279 71.0294 5.5925 72.2106 5.32257V5.15201L72.4343 3.39989C72.4635 3.17129 72.658 3 72.8885 3H76.1115C76.342 3 76.5365 3.17129 76.5657 3.39989L76.7894 5.15201V5.30206C77.9829 5.56343 79.0999 6.02898 80.1021 6.66024L80.1983 6.56404L81.5954 5.48326C81.7777 5.34225 82.0364 5.35869 82.1993 5.52165L84.4784 7.80068C84.6413 7.96364 84.6578 8.22232 84.5167 8.40461L83.436 9.8017L83.35 9.88766C83.9912 10.8914 84.4654 12.0121 84.7336 13.2106H84.848L86.6001 13.4343C86.8287 13.4635 87 13.658 87 13.8885V17.1115C87 17.342 86.8287 17.5365 86.6001 17.5657L84.848 17.7894H84.7336C84.4654 18.9879 83.9912 20.1086 83.35 21.1123L83.5331 21.2954L84.5216 22.5961C84.6601 22.7784 84.6427 23.035 84.4808 23.1969L82.1969 25.4808C82.035 25.6427 81.7784 25.6601 81.5961 25.5216L80.2954 24.5331L80.1021 24.3397C79.0999 24.971 77.9828 25.4365 76.7894 25.6979V25.9853L76.5687 27.604C76.5377 27.8309 76.3439 28 76.115 28H72.885Z"/>
</mask>
<path d="M72.4313 27.604L70.1795 27.9111L70.1795 27.9111L72.4313 27.604ZM72.2106 25.9853H69.9379V26.1396L69.9587 26.2924L72.2106 25.9853ZM72.2106 25.6773H74.4834V23.8654L72.7169 23.4617L72.2106 25.6773ZM68.9335 24.3041L70.157 22.3888L68.6179 21.4057L67.3265 22.6971L68.9335 24.3041ZM68.7046 24.5331L70.0798 26.3426L70.2026 26.2492L70.3116 26.1402L68.7046 24.5331ZM67.404 25.5216L66.0288 23.7121H66.0288L67.404 25.5216ZM66.8031 25.4808L68.4102 23.8737L68.4102 23.8737L66.8031 25.4808ZM64.5192 23.1969L62.9121 24.8039L62.9122 24.8039L64.5192 23.1969ZM64.4784 22.5961L62.669 21.2209L62.669 21.2209L64.4784 22.5961ZM65.4669 21.2954L63.8599 19.6884L63.7508 19.7974L63.6575 19.9202L65.4669 21.2954ZM65.7061 21.0562L67.3132 22.6633L68.5962 21.3803L67.6291 19.845L65.7061 21.0562ZM64.3581 17.7894L66.576 17.2931L66.1785 15.5166H64.3581V17.7894ZM64.0147 17.7894L63.7076 20.0413L63.8604 20.0621H64.0147V17.7894ZM62.396 17.5687L62.7031 15.3168L62.7031 15.3168L62.396 17.5687ZM62.396 13.4313L62.0889 11.1795L62.0889 11.1795L62.396 13.4313ZM64.0147 13.2106V10.9379H63.8604L63.7076 10.9587L64.0147 13.2106ZM64.3581 13.2106V15.4834H66.1785L66.576 13.7069L64.3581 13.2106ZM65.7061 9.94373L67.6291 11.155L68.5962 9.6197L67.3131 8.33667L65.7061 9.94373ZM65.564 9.8017L63.7664 11.1923L63.8548 11.3066L63.957 11.4088L65.564 9.8017ZM64.4833 8.40461L62.6856 9.79522L62.6856 9.79523L64.4833 8.40461ZM64.5217 7.80068L62.9146 6.19362L62.9146 6.19362L64.5217 7.80068ZM66.8007 5.52165L65.1936 3.91459L65.1936 3.91459L66.8007 5.52165ZM67.4046 5.48326L66.014 7.28089L66.014 7.28089L67.4046 5.48326ZM68.8017 6.56404L70.4088 4.95698L70.3066 4.85481L70.1923 4.76641L68.8017 6.56404ZM68.9335 6.6958L67.3264 8.30286L68.6178 9.59429L70.157 8.6111L68.9335 6.6958ZM72.2106 5.32257L72.7169 7.53819L74.4834 7.13455V5.32257H72.2106ZM72.2106 5.15201L69.9562 4.86422L69.9379 5.00753V5.15201H72.2106ZM72.4343 3.39989L70.1799 3.11209L70.1799 3.11209L72.4343 3.39989ZM76.5657 3.39989L74.3113 3.68769V3.68769L76.5657 3.39989ZM76.7894 5.15201H79.0621V5.00753L79.0438 4.86422L76.7894 5.15201ZM76.7894 5.30206H74.5166V7.13094L76.3032 7.52218L76.7894 5.30206ZM80.1021 6.66024L78.8908 8.58327L80.4261 9.55034L81.7092 8.26729L80.1021 6.66024ZM80.1983 6.56404L78.8077 4.76641L78.6934 4.85481L78.5912 4.95698L80.1983 6.56404ZM81.5954 5.48326L80.2048 3.68563L80.2048 3.68563L81.5954 5.48326ZM82.1993 5.52165L80.5923 7.12871L80.5923 7.12872L82.1993 5.52165ZM84.4784 7.80068L86.0854 6.19362L86.0854 6.19361L84.4784 7.80068ZM84.5167 8.40461L82.7191 7.01399L82.7191 7.01399L84.5167 8.40461ZM83.436 9.8017L85.043 11.4088L85.1452 11.3066L85.2336 11.1923L83.436 9.8017ZM83.35 9.88766L81.743 8.2806L80.4515 9.57201L81.4347 11.1111L83.35 9.88766ZM84.7336 13.2106L82.5157 13.7069L82.9132 15.4834H84.7336V13.2106ZM84.848 13.2106L85.1358 10.9562L84.9925 10.9379H84.848V13.2106ZM86.6001 13.4343L86.8879 11.1799H86.8879L86.6001 13.4343ZM86.6001 17.5657L86.3123 15.3113H86.3123L86.6001 17.5657ZM84.848 17.7894V20.0621H84.9925L85.1358 20.0438L84.848 17.7894ZM84.7336 17.7894V15.5166H82.9132L82.5157 17.2931L84.7336 17.7894ZM83.35 21.1123L81.4347 19.8888L80.4515 21.4279L81.7429 22.7194L83.35 21.1123ZM83.5331 21.2954L85.3426 19.9202L85.2492 19.7974L85.1402 19.6884L83.5331 21.2954ZM84.5216 22.5961L82.7121 23.9712L82.7121 23.9712L84.5216 22.5961ZM84.4808 23.1969L86.0879 24.8039L86.0879 24.8039L84.4808 23.1969ZM82.1969 25.4808L80.5898 23.8737V23.8737L82.1969 25.4808ZM81.5961 25.5216L80.2209 27.331L80.2209 27.331L81.5961 25.5216ZM80.2954 24.5331L78.6884 26.1402L78.7974 26.2492L78.9202 26.3426L80.2954 24.5331ZM80.1021 24.3397L81.7091 22.7327L80.4261 21.4496L78.8908 22.4167L80.1021 24.3397ZM76.7894 25.6979L76.3032 23.4777L74.5166 23.869V25.6979H76.7894ZM76.7894 25.9853L79.0413 26.2924L79.0621 26.1396V25.9853H76.7894ZM76.5687 27.604L74.3168 27.2969V27.2969L76.5687 27.604ZM70.1795 27.9111C70.364 29.264 71.5195 30.2727 72.885 30.2727V25.7273C73.7926 25.7273 74.5606 26.3977 74.6832 27.2969L70.1795 27.9111ZM69.9587 26.2924L70.1795 27.9111L74.6832 27.2969L74.4625 25.6783L69.9587 26.2924ZM69.9379 25.6773V25.9853H74.4834V25.6773H69.9379ZM67.7101 26.2195C68.9167 26.9902 70.2636 27.5637 71.7043 27.893L72.7169 23.4617C71.7952 23.2511 70.9322 22.8841 70.157 22.3888L67.7101 26.2195ZM70.3116 26.1402L70.5406 25.9112L67.3265 22.6971L67.0975 22.926L70.3116 26.1402ZM68.7791 27.331L70.0798 26.3426L67.3294 22.7236L66.0288 23.7121L68.7791 27.331ZM65.1961 27.0879C66.1616 28.0534 67.692 28.1573 68.7791 27.331L66.0288 23.7121C66.7513 23.163 67.7685 23.232 68.4102 23.8737L65.1961 27.0879ZM62.9122 24.8039L65.1961 27.0879L68.4102 23.8737L66.1263 21.5898L62.9122 24.8039ZM62.669 21.2209C61.8427 22.308 61.9466 23.8384 62.9121 24.8039L66.1263 21.5898C66.768 22.2316 66.837 23.2487 66.2879 23.9712L62.669 21.2209ZM63.6575 19.9202L62.669 21.2209L66.2879 23.9712L67.2764 22.6706L63.6575 19.9202ZM64.099 19.4492L63.8599 19.6884L67.074 22.9025L67.3132 22.6633L64.099 19.4492ZM62.1402 18.2856C62.4612 19.7202 63.0242 21.0628 63.7831 22.2675L67.6291 19.845C67.1417 19.071 66.7813 18.211 66.576 17.2931L62.1402 18.2856ZM64.0147 20.0621H64.3581V15.5166H64.0147V20.0621ZM62.0889 19.8205L63.7076 20.0413L64.3217 15.5375L62.7031 15.3168L62.0889 19.8205ZM59.7273 17.115C59.7273 18.4805 60.736 19.636 62.0889 19.8205L62.7031 15.3168C63.6023 15.4394 64.2727 16.2074 64.2727 17.115H59.7273ZM59.7273 13.885V17.115H64.2727V13.885H59.7273ZM62.0889 11.1795C60.736 11.364 59.7273 12.5195 59.7273 13.885H64.2727C64.2727 14.7926 63.6023 15.5606 62.7031 15.6832L62.0889 11.1795ZM63.7076 10.9587L62.0889 11.1795L62.7031 15.6832L64.3217 15.4625L63.7076 10.9587ZM64.3581 10.9379H64.0147V15.4834H64.3581V10.9379ZM63.783 8.73246C63.0242 9.93723 62.4612 11.2798 62.1402 12.7144L66.576 13.7069C66.7813 12.789 67.1416 11.9289 67.6291 11.155L63.783 8.73246ZM63.957 11.4088L64.099 11.5508L67.3131 8.33667L67.1711 8.19464L63.957 11.4088ZM62.6856 9.79523L63.7664 11.1923L67.3617 8.41108L66.2809 7.01399L62.6856 9.79523ZM62.9146 6.19362C61.9428 7.16545 61.8447 8.70814 62.6856 9.79522L66.2809 7.01399C66.8398 7.7365 66.7746 8.76182 66.1287 9.40774L62.9146 6.19362ZM65.1936 3.91459L62.9146 6.19362L66.1287 9.40774L68.4077 7.12872L65.1936 3.91459ZM68.7952 3.68563C67.7082 2.84468 66.1655 2.94276 65.1936 3.91459L68.4077 7.12872C67.7618 7.77463 66.7365 7.83982 66.014 7.28089L68.7952 3.68563ZM70.1923 4.76641L68.7952 3.68563L66.014 7.28089L67.4111 8.36167L70.1923 4.76641ZM70.5405 5.08874L70.4088 4.95698L67.1947 8.1711L67.3264 8.30286L70.5405 5.08874ZM71.7043 3.10695C70.2636 3.43618 68.9166 4.0097 67.71 4.7805L70.157 8.6111C70.9322 8.11588 71.7952 7.74882 72.7169 7.53819L71.7043 3.10695ZM69.9379 5.15201V5.32257H74.4834V5.15201H69.9379ZM70.1799 3.11209L69.9562 4.86422L74.4651 5.43981L74.6887 3.68769L70.1799 3.11209ZM72.8885 0.727272C71.5141 0.727272 70.3539 1.74877 70.1799 3.11209L74.6887 3.6877C74.5731 4.5938 73.802 5.27273 72.8885 5.27273V0.727272ZM76.1115 0.727272H72.8885V5.27273H76.1115V0.727272ZM78.8201 3.1121C78.6461 1.74877 77.4859 0.727272 76.1115 0.727272V5.27273C75.1981 5.27273 74.4269 4.59381 74.3113 3.68769L78.8201 3.1121ZM79.0438 4.86422L78.8201 3.11209L74.3113 3.68769L74.5349 5.43981L79.0438 4.86422ZM79.0621 5.30206V5.15201H74.5166V5.30206H79.0621ZM81.3134 4.7372C80.093 3.96848 78.7312 3.40073 77.2756 3.08195L76.3032 7.52218C77.2345 7.72614 78.1069 8.08948 78.8908 8.58327L81.3134 4.7372ZM78.5912 4.95698L78.495 5.05318L81.7092 8.26729L81.8054 8.17109L78.5912 4.95698ZM80.2048 3.68563L78.8077 4.76641L81.5889 8.36166L82.986 7.28089L80.2048 3.68563ZM83.8064 3.91459C82.8346 2.94276 81.2919 2.84468 80.2048 3.68563L82.986 7.28089C82.2635 7.83981 81.2382 7.77463 80.5923 7.12871L83.8064 3.91459ZM86.0854 6.19361L83.8064 3.91459L80.5923 7.12872L82.8713 9.40774L86.0854 6.19361ZM86.3144 9.79523C87.1553 8.70816 87.0573 7.16546 86.0854 6.19362L82.8713 9.40774C82.2254 8.76181 82.1602 7.73648 82.7191 7.01399L86.3144 9.79523ZM85.2336 11.1923L86.3144 9.79522L82.7191 7.01399L81.6383 8.41108L85.2336 11.1923ZM84.9571 11.4947L85.043 11.4088L81.8289 8.19464L81.743 8.2806L84.9571 11.4947ZM86.9515 12.7144C86.6244 11.2526 86.0461 9.88643 85.2653 8.66419L81.4347 11.1111C81.9363 11.8964 82.3064 12.7716 82.5157 13.7069L86.9515 12.7144ZM84.848 10.9379H84.7336V15.4834H84.848V10.9379ZM86.8879 11.1799L85.1358 10.9562L84.5602 15.4651L86.3123 15.6887L86.8879 11.1799ZM89.2727 13.8885C89.2727 12.5141 88.2512 11.3539 86.8879 11.1799L86.3123 15.6887C85.4062 15.5731 84.7273 14.8019 84.7273 13.8885H89.2727ZM89.2727 17.1115V13.8885H84.7273V17.1115H89.2727ZM86.8879 19.8201C88.2512 19.6461 89.2727 18.4859 89.2727 17.1115H84.7273C84.7273 16.198 85.4062 15.4269 86.3123 15.3113L86.8879 19.8201ZM85.1358 20.0438L86.8879 19.8201L86.3123 15.3113L84.5602 15.5349L85.1358 20.0438ZM84.7336 20.0621H84.848V15.5166H84.7336V20.0621ZM85.2653 22.3358C86.046 21.1136 86.6244 19.7474 86.9515 18.2856L82.5157 17.2931C82.3064 18.2283 81.9363 19.1036 81.4347 19.8888L85.2653 22.3358ZM85.1402 19.6884L84.957 19.5052L81.7429 22.7194L81.926 22.9025L85.1402 19.6884ZM86.331 21.2209L85.3426 19.9202L81.7236 22.6706L82.7121 23.9712L86.331 21.2209ZM86.0879 24.8039C87.0534 23.8384 87.1573 22.308 86.331 21.2209L82.7121 23.9712C82.163 23.2487 82.232 22.2316 82.8737 21.5898L86.0879 24.8039ZM83.8039 27.0879L86.0879 24.8039L82.8737 21.5898L80.5898 23.8737L83.8039 27.0879ZM80.2209 27.331C81.308 28.1573 82.8384 28.0534 83.8039 27.0879L80.5898 23.8737C81.2316 23.232 82.2487 23.163 82.9712 23.7121L80.2209 27.331ZM78.9202 26.3426L80.2209 27.331L82.9713 23.7121L81.6706 22.7236L78.9202 26.3426ZM78.495 25.9468L78.6884 26.1402L81.9025 22.926L81.7091 22.7327L78.495 25.9468ZM77.2756 27.918C78.7312 27.5992 80.0929 27.0315 81.3133 26.2628L78.8908 22.4167C78.1068 22.9105 77.2345 23.2738 76.3032 23.4777L77.2756 27.918ZM79.0621 25.9853V25.6979H74.5166V25.9853H79.0621ZM78.8205 27.9111L79.0413 26.2924L74.5375 25.6783L74.3168 27.2969L78.8205 27.9111ZM76.115 30.2727C77.4805 30.2727 78.636 29.264 78.8205 27.9111L74.3168 27.2969C74.4394 26.3977 75.2074 25.7273 76.115 25.7273V30.2727ZM72.885 30.2727H76.115V25.7273H72.885V30.2727Z" fill="black" mask="url(#path-2-outside-1_77_1128)"/>
<circle cx="74.5" cy="15.5" r="6.81818" stroke="black" stroke-width="2.27273"/>
<path d="M102.238 20.5H104.272L101.518 13.516L104.272 7.9H102.292L99.7 13.39V7.9H97.72V20.5H99.7V16.63L100.312 15.478L102.238 20.5ZM106.991 10.798C106.991 9.898 107.387 9.556 108.017 9.556C108.647 9.556 109.043 9.898 109.043 10.798V17.602C109.043 18.502 108.647 18.844 108.017 18.844C107.387 18.844 106.991 18.502 106.991 17.602V10.798ZM105.011 17.476C105.011 19.492 106.073 20.644 108.017 20.644C109.961 20.644 111.023 19.492 111.023 17.476V10.924C111.023 8.908 109.961 7.756 108.017 7.756C106.073 7.756 105.011 8.908 105.011 10.924V17.476ZM114.29 15.1H116.54V20.5H118.556V7.9H116.54V13.3H114.29V7.9H112.31V20.5H114.29V15.1ZM119.415 9.7H121.485V20.5H123.465V9.7H125.535V7.9H119.415V9.7ZM130.8 7.9H127.902L125.886 20.5H127.704L128.046 18.214H130.476L130.818 20.5H132.816L130.8 7.9ZM129.252 10.132L130.206 16.504H128.298L129.252 10.132ZM138.256 20.5H140.29L137.536 13.516L140.29 7.9H138.31L135.718 13.39V7.9H133.738V20.5H135.718V16.63L136.33 15.478L138.256 20.5ZM140.615 9.7H142.685V20.5H144.665V9.7H146.735V7.9H140.615V9.7ZM150.523 20.5C152.503 20.5 153.475 19.402 153.475 17.386V15.748C153.475 13.732 152.503 12.634 150.523 12.634H149.587V7.9H147.607V20.5H150.523ZM149.587 18.7V14.434H150.523C151.153 14.434 151.495 14.722 151.495 15.622V17.512C151.495 18.412 151.153 18.7 150.523 18.7H149.587ZM156.589 20.5V7.9H154.609V20.5H156.589Z" fill="black"/>
</svg>
