<svg width="38" height="49" viewBox="0 0 38 49" fill="none" xmlns="http://www.w3.org/2000/svg">
<path fill-rule="evenodd" clip-rule="evenodd" d="M31.5464 33.2471C31.5464 40.2398 25.8451 45.9086 18.8123 45.9086C11.7794 45.9086 6.07814 40.2398 6.07814 33.2471C5.83402 27.4698 8.75498 21.9388 12.002 15.7904C14.5157 11.0305 17.2249 5.90067 18.8123 0C20.3996 5.90067 23.1088 11.0305 25.6225 15.7904C28.8695 21.9388 31.7905 27.4698 31.5464 33.2471ZM14.1322 23.2016C12.3766 26.3441 10.7899 29.1842 10.7428 32.7426C10.7012 35.8807 12.0027 39.1424 14.6617 40.8333C19.2234 43.7342 25.6047 41.6697 26.8322 35.2281C27.0513 32.8331 27.0054 31.6106 26.3124 29.974C24.2243 26.4442 23.303 24.5789 23.627 22.7389C19.2091 26.701 16.6919 32.9988 23.4538 37.123C24.4834 35.298 23.963 33.772 23.4228 32.1884C22.9178 30.7078 22.3957 29.1768 23.1072 27.3039C23.2448 28.4412 23.6884 29.5861 24.1325 30.7323C25.0862 33.1938 26.0422 35.661 23.9735 38.0705C20.5951 41.0851 14.2067 38.2428 16.0039 30.4047C19.2311 18.6046 20.0086 15.149 18.6028 11.3694C17.9398 16.3863 15.9459 19.9553 14.1322 23.2016Z" fill="black"/>
<path d="M37.8558 37.2953C38.982 28.9405 33.178 22.9112 31.9652 16.3651C31.099 23.9448 36.3678 26.7646 34.6507 36.0033C33.6111 41.5964 28.746 47.7275 21.6567 48.837C30.2327 49.9568 36.6431 45.2195 37.8558 37.2953Z" fill="black"/>
<path d="M0.144156 37.2953C-0.981991 28.9405 4.82199 22.9112 6.03477 16.3651C6.90103 23.9448 1.63224 26.7646 3.34934 36.0033C4.38886 41.5964 9.25402 47.7275 16.3433 48.837C7.7673 49.9568 1.35693 45.2195 0.144156 37.2953Z" fill="black"/>
</svg>
