<svg width="45" height="45" viewBox="0 0 45 45" fill="none" xmlns="http://www.w3.org/2000/svg">
<path fill-rule="evenodd" clip-rule="evenodd" d="M23.4977 44.1557C23.1099 44.2241 22.7311 43.9955 22.6109 43.6204L21.7536 40.9446L21.6617 40.423C19.5801 40.3186 17.568 39.852 15.7004 39.0758L15.3811 39.5318L13.4732 41.5946C13.2058 41.8838 12.766 41.9309 12.4434 41.705L7.89254 38.5185C7.56993 38.2926 7.46379 37.8631 7.64402 37.513L8.9299 35.0146L9.26357 34.5381C7.91253 33.0484 6.8016 31.3208 6.00451 29.407L5.42279 29.5096L2.6151 29.6192C2.22157 29.6345 1.87719 29.3568 1.80881 28.969L0.844101 23.4979C0.775713 23.11 1.00434 22.7313 1.37939 22.6111L4.05523 21.7538L4.63701 21.6512C4.73149 19.5802 5.18458 17.5769 5.94464 15.715L5.66154 15.5168L3.41357 13.4731C3.12027 13.2064 3.07087 12.7633 3.29823 12.4386L6.47791 7.89757C6.70527 7.57286 7.13854 7.46774 7.48942 7.65216L10.1787 9.06557L10.4414 9.24951C11.9309 7.88135 13.662 6.75474 15.5822 5.94473L15.5312 5.65563L15.3868 2.62096C15.3679 2.22502 15.6463 1.87677 16.0367 1.80794L21.4961 0.845304C21.8864 0.776471 22.2671 1.00851 22.3849 1.38702L23.287 4.28808L23.3319 4.54242C25.4315 4.62867 27.4627 5.08358 29.3488 5.85349L29.4831 5.66169L31.5268 3.41372C31.7934 3.12042 32.2365 3.07102 32.5612 3.29838L37.1023 6.47806C37.427 6.70542 37.5321 7.13869 37.3477 7.48957L35.9343 10.1789L35.8143 10.3502C37.2002 11.8589 38.3382 13.6156 39.1504 15.5656L39.3442 15.5314L42.3788 15.387C42.7748 15.3681 43.123 15.6465 43.1919 16.0369L44.1545 21.4962C44.2233 21.8866 43.9913 22.2673 43.6128 22.385L40.7117 23.2872L40.518 23.3214C40.4218 25.4316 39.9532 27.4716 39.1669 29.3633L39.5317 29.6187L41.5945 31.5266C41.8836 31.794 41.9308 32.2339 41.7049 32.5565L38.5183 37.1073C38.2925 37.4299 37.863 37.536 37.5128 37.3558L35.0145 36.0699L34.6293 35.8002C33.1203 37.1688 31.3672 38.2911 29.4236 39.0902L29.5094 39.577L29.619 42.3847C29.6344 42.7782 29.3567 43.1226 28.9688 43.191L23.4977 44.1557ZM24.5221 33.9689C30.8562 32.852 35.0856 26.8118 33.9687 20.4777C32.8519 14.1436 26.8116 9.91421 20.4775 11.0311C14.1434 12.148 9.91404 18.1882 11.0309 24.5223C12.1478 30.8564 18.188 35.0858 24.5221 33.9689Z" fill="white"/>
</svg>
