<svg width="36" height="36" viewBox="0 0 36 36" fill="none" xmlns="http://www.w3.org/2000/svg">
<path d="M6.93 27.18C8.46 26.01 10.17 25.0872 12.06 24.4116C13.95 23.7372 15.93 23.4 18 23.4C20.07 23.4 22.05 23.7372 23.94 24.4116C25.83 25.0872 27.54 26.01 29.07 27.18C30.12 25.95 30.9378 24.555 31.5234 22.995C32.1078 21.435 32.4 19.77 32.4 18C32.4 14.01 30.9978 10.6122 28.1934 7.8066C25.3878 5.0022 21.99 3.6 18 3.6C14.01 3.6 10.6128 5.0022 7.8084 7.8066C5.0028 10.6122 3.6 14.01 3.6 18C3.6 19.77 3.8928 21.435 4.4784 22.995C5.0628 24.555 5.88 25.95 6.93 27.18ZM18 19.8C16.23 19.8 14.7372 19.1928 13.5216 17.9784C12.3072 16.7628 11.7 15.27 11.7 13.5C11.7 11.73 12.3072 10.2372 13.5216 9.0216C14.7372 7.8072 16.23 7.2 18 7.2C19.77 7.2 21.2628 7.8072 22.4784 9.0216C23.6928 10.2372 24.3 11.73 24.3 13.5C24.3 15.27 23.6928 16.7628 22.4784 17.9784C21.2628 19.1928 19.77 19.8 18 19.8ZM18 36C15.51 36 13.17 35.5272 10.98 34.5816C8.79 33.6372 6.885 32.355 5.265 30.735C3.645 29.115 2.3628 27.21 1.4184 25.02C0.4728 22.83 0 20.49 0 18C0 15.51 0.4728 13.17 1.4184 10.98C2.3628 8.79 3.645 6.885 5.265 5.265C6.885 3.645 8.79 2.3622 10.98 1.4166C13.17 0.4722 15.51 0 18 0C20.49 0 22.83 0.4722 25.02 1.4166C27.21 2.3622 29.115 3.645 30.735 5.265C32.355 6.885 33.6372 8.79 34.5816 10.98C35.5272 13.17 36 15.51 36 18C36 20.49 35.5272 22.83 34.5816 25.02C33.6372 27.21 32.355 29.115 30.735 30.735C29.115 32.355 27.21 33.6372 25.02 34.5816C22.83 35.5272 20.49 36 18 36ZM18 32.4C19.59 32.4 21.09 32.1678 22.5 31.7034C23.91 31.2378 25.2 30.57 26.37 29.7C25.2 28.83 23.91 28.1622 22.5 27.6966C21.09 27.2322 19.59 27 18 27C16.41 27 14.91 27.2322 13.5 27.6966C12.09 28.1622 10.8 28.83 9.63 29.7C10.8 30.57 12.09 31.2378 13.5 31.7034C14.91 32.1678 16.41 32.4 18 32.4ZM18 16.2C18.78 16.2 19.425 15.945 19.935 15.435C20.445 14.925 20.7 14.28 20.7 13.5C20.7 12.72 20.445 12.075 19.935 11.565C19.425 11.055 18.78 10.8 18 10.8C17.22 10.8 16.575 11.055 16.065 11.565C15.555 12.075 15.3 12.72 15.3 13.5C15.3 14.28 15.555 14.925 16.065 15.435C16.575 15.945 17.22 16.2 18 16.2Z" fill="white"/>
</svg>
