<svg width="38" height="40" viewBox="0 0 38 40" fill="none" xmlns="http://www.w3.org/2000/svg">
<path d="M31.9198 11.4C27.3598 4 18.0498 1.8 10.8298 6.4C3.79983 11 1.51983 21 6.07983 28.4L6.45983 29L4.93983 35L10.6398 33.4L11.2098 33.8C13.6798 35.2 16.3398 36 18.9998 36C21.8498 36 24.6998 35.2 27.1698 33.6C34.1998 28.8 36.2898 19 31.9198 11.4ZM27.9298 26.8C27.1698 28 26.2198 28.8 24.8898 29C24.1298 29 23.1798 29.4 19.3798 27.8C16.1498 26.2 13.4898 23.6 11.5898 20.6C10.4498 19.2 9.87983 17.4 9.68983 15.6C9.68983 14 10.2598 12.6 11.2098 11.6C11.5898 11.2 11.9698 11 12.3498 11H13.2998C13.6798 11 14.0598 11 14.2498 11.8C14.6298 12.8 15.5798 15.2 15.5798 15.4C15.7698 15.6 15.7698 16 15.5798 16.2C15.7698 16.6 15.5798 17 15.3898 17.2C15.1998 17.4 15.0098 17.8 14.8198 18C14.4398 18.2 14.2498 18.6 14.4398 19C15.1998 20.2 16.1498 21.4 17.0998 22.4C18.2398 23.4 19.3798 24.2 20.7098 24.8C21.0898 25 21.4698 25 21.6598 24.6C21.8498 24.2 22.7998 23.2 23.1798 22.8C23.5598 22.4 23.7498 22.4 24.1298 22.6L27.1698 24.2C27.5498 24.4 27.9298 24.6 28.1198 24.8C28.3098 25.4 28.3098 26.2 27.9298 26.8Z" fill="white"/>
</svg>
