<svg width="231" height="46" viewBox="0 0 231 46" fill="none" xmlns="http://www.w3.org/2000/svg">
<path d="M222.622 34.7194C222.238 34.7194 221.914 34.855 221.647 35.1225C221.38 35.3901 221.245 35.7362 221.245 36.1607V44.5623C221.245 44.9832 221.38 45.3293 221.647 45.5969C221.914 45.8644 222.241 46 222.622 46H229.623C230.007 46 230.331 45.8644 230.598 45.5969C230.868 45.3293 231 44.9832 231 44.5623V36.1571C231 35.7362 230.865 35.3901 230.598 35.119C230.331 34.8514 230.007 34.7158 229.623 34.7158H222.622V34.7194ZM0 23.7278V24.1273V44.2697C0 44.7264 0.170762 45.1331 0.51584 45.4791C0.860919 45.8252 1.26292 45.9964 1.72184 45.9964L36.6922 45.9929L36.806 45.9964H45.0025C45.497 45.9964 45.9204 45.8359 46.2655 45.5077C46.6105 45.183 46.7813 44.7656 46.7813 44.2697V36.6173C46.7813 36.1215 46.6105 35.6969 46.2655 35.3509C45.9204 35.0048 45.5006 34.8336 45.0025 34.8336H38.9761L38.9548 34.8871L17.5883 34.8835C16.5211 34.8835 15.8843 34.195 15.8879 32.9499L15.895 23.7813C15.895 19.7535 17.0903 16.6462 19.4809 14.4557C21.8716 12.2688 25.2121 11.1736 29.4953 11.1736C30.7974 11.1736 32.0888 11.2699 33.3695 11.4625C34.6502 11.6552 35.9416 11.9228 37.2436 12.2688C39.8833 12.9609 42.0462 13.6138 43.729 14.2238C44.3408 14.4557 44.8958 14.3879 45.3939 14.0205C45.8919 13.6566 46.1018 13.1286 46.0271 12.4365L45.3939 3.97782C45.3547 3.67101 45.2231 3.3642 44.9919 3.05739C44.7606 2.75058 44.4938 2.55794 44.1879 2.48302C42.121 1.79091 39.6343 1.2094 36.7278 0.727783C33.8213 0.249731 30.5092 0.00713653 26.7987 0.00713653C22.5511 0.00713653 18.7659 0.535135 15.4361 1.59113C12.1062 2.64713 9.29578 4.19187 7.00119 6.22538C4.70659 8.25888 2.96341 10.7704 1.77876 13.7636C0.633238 16.6605 0.0426902 19.9783 0 23.7278ZM166.499 34.7194H163.301C162.916 34.7194 162.593 34.855 162.326 35.1225C162.055 35.3901 161.924 35.7362 161.924 36.1571V44.5587C161.924 44.9797 162.059 45.3257 162.326 45.5933C162.593 45.8609 162.916 45.9964 163.301 45.9964H166.203H166.801V45.2258V34.7158H170.305C170.689 34.7158 171.013 34.8514 171.28 35.119C171.547 35.3865 171.682 35.7326 171.682 36.1536V44.5551C171.682 44.9761 171.547 45.3222 171.28 45.5897C171.027 45.843 170.722 45.9786 170.366 45.9929L216.891 45.9857C217.254 45.9857 217.531 45.6504 217.78 45.3222C218.029 44.9975 218.154 44.6622 218.154 44.3161V21.8762C218.154 21.3768 217.983 20.9629 217.638 20.6383C217.293 20.3101 216.873 20.1495 216.375 20.1495H198.011C197.513 20.1495 197.093 20.3101 196.748 20.6383C196.403 20.9665 196.232 21.3768 196.232 21.8762V29.5286C196.232 30.0281 196.407 30.449 196.748 30.7951C197.093 31.1412 197.513 31.3124 198.011 31.3124H204.038L204.08 35.7861L184.094 35.779C183.02 35.779 182.39 35.0904 182.394 33.8454L182.401 23.7135C182.404 19.9533 183.699 16.8924 186.36 14.6198C189.089 12.2902 192.75 11.1664 197.264 11.1664C198.719 11.1664 200.163 11.2449 201.597 11.3983C203.031 11.5517 204.457 11.7622 205.873 12.0298C208.78 12.6077 211.266 13.1999 213.333 13.8136C213.984 14.0062 214.539 13.8992 214.998 13.496C215.457 13.0929 215.649 12.5649 215.571 11.9121L214.596 3.91361C214.557 3.6068 214.415 3.31069 214.166 3.02172C213.917 2.73275 213.639 2.5508 213.333 2.47588C211.345 1.86226 208.723 1.29502 205.471 0.777728C202.22 0.260434 198.566 0 194.511 0C186.168 0 179.416 2.14767 174.251 6.44657C169.085 10.8204 166.502 16.7497 166.502 24.2308C166.502 24.6625 166.509 25.0906 166.527 25.5116C166.513 25.5044 166.502 25.5044 166.502 25.5151V34.7194H166.499ZM149.597 27.6164C154.951 25.4045 159.039 21.2519 159.039 13.5389C159.039 9.6645 157.431 6.53576 154.218 4.1562C151.233 1.96929 147.274 0.87762 142.34 0.87762H113.527C113.068 0.87762 112.666 1.04886 112.321 1.39491C111.976 1.74097 111.806 2.1441 111.806 2.60431V34.7194H115.306C115.69 34.7194 116.014 34.855 116.284 35.1225C116.551 35.3901 116.686 35.7362 116.686 36.1571V44.5587C116.686 44.9797 116.555 45.3257 116.284 45.5933C116.028 45.8502 115.722 45.9822 115.363 45.9964H126.27C126.768 45.9964 127.188 45.8252 127.533 45.4791C127.878 45.1331 128.049 44.73 128.049 44.2697V30.0566H133.606C134.115 30.392 134.563 30.9128 134.844 31.4373L142.133 45.0189C142.279 45.2901 142.507 45.5184 142.795 45.7075C143.08 45.9001 143.378 45.9964 143.684 45.9964H158.263C158.989 45.9964 159.515 45.7182 159.839 45.1616C160.163 44.6051 160.134 44.0022 159.754 43.3493C156.915 38.551 153.546 31.5728 149.739 27.752L149.597 27.6164ZM136.655 11.1771C138.761 11.1771 140.365 11.5018 141.475 12.1546C142.585 12.8075 143.14 13.8421 143.14 15.262C143.14 16.9494 142.411 18.1196 140.959 18.7725C139.504 19.4253 137.384 19.75 134.588 19.75H127.7V11.1736H136.655V11.1771ZM111.802 34.7194H111.645H108.301C107.917 34.7194 107.593 34.855 107.327 35.1225C107.06 35.3901 106.925 35.7362 106.925 36.1571V44.5587C106.925 44.9797 107.06 45.3257 107.327 45.5933C107.593 45.8609 107.921 45.9964 108.301 45.9964H111.204H111.802V34.7194ZM81.652 14.8624C80.0085 12.6755 78.3898 10.4993 76.8032 8.33023C75.2165 6.16116 73.58 3.92788 71.8973 1.62681C71.8191 1.43416 71.6199 1.26291 71.2926 1.10951C70.9688 0.956102 70.6913 0.881187 70.4601 0.881187H57.7207C57.2617 0.881187 56.8597 1.05243 56.5147 1.39849C56.1696 1.74454 55.9988 2.14767 55.9988 2.60789V34.723H55.8423H52.4982C52.114 34.723 51.7903 34.8585 51.5235 35.1261C51.2567 35.3937 51.1215 35.7397 51.1215 36.1607V44.5623C51.1215 44.9832 51.2567 45.3293 51.5235 45.5969C51.7903 45.8644 52.1176 46 52.4982 46H55.4012H55.9988V34.7194H59.4994C59.8836 34.7194 60.2074 34.855 60.4742 35.1225C60.741 35.3901 60.8762 35.7362 60.8762 36.1571V44.5587C60.8762 44.9797 60.741 45.3257 60.4742 45.5933C60.218 45.8502 59.9121 45.9822 59.5528 45.9964H68.9126C69.4106 45.9964 69.8304 45.8252 70.1755 45.4791C70.5206 45.1331 70.6914 44.73 70.6914 44.2697V23.4352L86.8745 45.3043C87.0275 45.497 87.2587 45.6575 87.5646 45.7931C87.8706 45.9286 88.1196 45.9929 88.3117 45.9929H101.169C101.667 45.9929 102.086 45.8216 102.431 45.4756C102.777 45.1295 102.947 44.7264 102.947 44.2662V2.59718C102.947 2.13696 102.777 1.73383 102.431 1.38778C102.086 1.04172 101.667 0.870485 101.169 0.870485H89.9766C89.4786 0.870485 89.0588 1.04172 88.7137 1.38778C88.3686 1.73383 88.1979 2.13696 88.1979 2.59718V23.7777C87.0879 22.2437 85.9993 20.7382 84.925 19.2612C83.8541 17.7878 82.762 16.3215 81.652 14.8624Z" fill="#0B322B"/>
</svg>
